# xmcd CD database file
#
# Track frame offsets:
#	150
#	19089
#	44752
#	66357
#	110800
#	130967
#	147046
#	162188
#	197739
#	257186
#
# Disc length: 3934 seconds
#
# Revision: 1
# Processed by: cddbd v1.5.2PL0 Copyright (c) Steve Scherf et al.
# Submitted via: CDex 1.70beta2
#
DISCID=980f5c0a
DTITLE=Team稲野 - 2012年6月12日　四谷コタンライブ
DYEAR=2012
DGENRE=Blues
TTITLE0=辛いことなんてしたくない
TTITLE1=梅雨なんてないほうがいい
TTITLE2=the storker
TTITLE3=噂話
TTITLE4=そーてーがい
TTITLE5=ありがとう
TTITLE6=アスレチック・エステティック
TTITLE7=独りよがり
TTITLE8=みんなの唄
TTITLE9=いつもそばにいるよ
EXTD=YEAR: 2012
EXTT0=
EXTT1=
EXTT2=
EXTT3=
EXTT4=
EXTT5=
EXTT6=
EXTT7=
EXTT8=
EXTT9=
PLAYORDER=
